<?xml version="1.0" ?>
<!-- Uploaded to: SVG Repo, www.svgrepo.com, Generator: SVG Repo Mixer Tools -->
<svg fill="#000000" width="800px" height="800px" viewBox="0 0 64 64" xmlns="http://www.w3.org/2000/svg">
<g id="a"/>
<g id="b">
<path d="M49.6646,17.0664c-3.4189-4.0586-7.1426-7.1807-11.0684-9.2803-1.9385-1.0371-4.2539-1.0371-6.1924,0-3.9258,2.0996-7.6494,5.2217-11.0684,9.2803-.8613,1.0215-1.3354,2.2988-1.3354,3.5967v3.8728c-5.0158,3.2211-7,5.7917-7,8.9641,0,1.0986,.3906,2.0322,1.1616,2.7734,1.1738,1.1299,3.1899,1.7383,5.7217,1.7383,.0383,0,.0782-.0019,.1167-.0021v15.4904c0,1.9297,1.5703,3.5,3.5,3.5h24c1.9297,0,3.5-1.5703,3.5-3.5V20.6631c0-1.2979-.4741-2.5752-1.3354-3.5967Zm.3354,36.4336c0,1.3789-1.1216,2.5-2.5,2.5H23.5c-1.3784,0-2.5-1.1211-2.5-2.5V27.5c0-.2764-.2236-.5-.5-.5s-.5,.2236-.5,.5v9.5047c-2.2941,.019-4.1569-.5007-5.1455-1.452-.5669-.5449-.8545-1.2363-.8545-2.0527,0-2.4932,1.2939-4.9424,7.6079-8.791,3.4889-2.1265,7.9416-4.1605,10.8954-5.4288,.6112,1.0247,1.7195,1.7198,2.9966,1.7198,1.9297,0,3.5-1.5703,3.5-3.5s-1.5703-3.5-3.5-3.5-3.5,1.5703-3.5,3.5c0,.2974,.0486,.5815,.1188,.8575-2.9844,1.2814-7.4918,3.3405-11.0314,5.498-.0303,.0184-.0573,.0361-.0874,.0546v-3.2469c0-1.0615,.3906-2.1104,1.1001-2.9521,3.3369-3.9609,6.9619-7.0039,10.7754-9.0439,1.6436-.8789,3.6055-.877,5.249,0,3.8135,2.04,7.4385,5.083,10.7754,9.0439,.7095,.8418,1.1001,1.8906,1.1001,2.9521V53.5Zm-14.0342-36.1807c-.1001-.2578-.3906-.3857-.647-.2852-.0269,.0103-.9065,.3541-2.272,.9285-.0283-.1503-.0468-.3043-.0468-.4627,0-1.3789,1.1216-2.5,2.5-2.5s2.5,1.1211,2.5,2.5-1.1216,2.5-2.5,2.5c-.8648,0-1.6277-.4418-2.0768-1.1111,1.3564-.5706,2.2314-.9128,2.258-.9231,.2573-.0996,.3848-.3896,.2847-.6465Zm1.4136,20.1133c-1.6899-1.1211-2.6001-1.8418-2.7017-2.1221-.0576-.3984,.0552-.8281,.2886-1.0957,.1519-.1738,.3345-.2568,.606-.2764,.6406-.0449,1.0142,.3994,1.0718,.4727,.811,1.126,2.4062,1.4414,3.6313,.7119,1.2065-.7148,1.5566-2.1621,.832-3.4395-.59-1.0423-2.3868-2.5515-4.9327-2.7262-.0421-.1951-.0817-.3688-.0916-.4565-.1098-.6733-1.1389-.6613-1.2446,0l-.0983,.5021c-1.5426,.2081-2.9147,.9194-3.8951,2.0409-1.1826,1.3516-1.7095,3.1553-1.4458,4.9492,.3687,2.5156,2.7764,4.1123,4.9009,5.5215,.8628,.5732,2.1675,1.4395,2.4487,1.9004,.395,.6465,.4546,1.2744,.1675,1.7686-.2754,.4756-.8232,.7754-1.5093,.8232-.7944,.0732-1.7158-.9561-1.9595-1.3281-.7393-1.168-2.3633-1.5684-3.6226-.8887-1.1646,.6289-1.5664,1.9814-1.001,3.3652,.7092,1.7318,3.1871,3.5555,5.9087,3.8038l.1057,.5399c.1057,.6613,1.1348,.6733,1.2446,0,.0115-.1022,.0632-.3217,.1123-.5553,2.3199-.2736,4.3227-1.5061,5.4032-3.3695,1.1855-2.0439,1.104-4.4658-.2236-6.6426-.8662-1.4219-2.457-2.4775-3.9956-3.499Zm3.354,9.6396c-.9746,1.6816-2.8433,2.7744-4.9985,2.9229-2.9336,.1992-5.4185-1.8359-5.9849-3.2188-.293-.7158-.3022-1.6465,.5503-2.1064,.27-.1455,.5654-.2148,.8564-.2148,.5776,0,1.1387,.2725,1.4502,.7656,.3496,.5332,1.5396,1.8896,2.8755,1.7832,1.0166-.0703,1.8545-.5508,2.2988-1.3184,.4795-.8252,.416-1.8174-.1787-2.792-.3677-.6025-1.4165-1.3271-2.7495-2.2129-1.9502-1.293-4.1602-2.7588-4.4644-4.832-.2207-1.5049,.2197-3.0156,1.2095-4.1465,.8965-1.0264,2.1909-1.6484,3.6455-1.752,2.4858-.1836,4.4087,1.1924,4.9937,2.2266,.4517,.7959,.2573,1.6543-.4722,2.0869-.771,.457-1.8062,.2607-2.3208-.4512-.3555-.458-1.0605-.9258-1.9385-.8721-.5425,.0391-.9653,.2412-1.293,.6172-.4233,.4844-.624,1.2109-.5244,1.8984,.1006,.6787,1.1807,1.5117,3.1382,2.8105,1.4473,.96,2.9438,1.9531,3.6948,3.1855,1.1309,1.8545,1.208,3.9033,.2119,5.6201Z"/>
</g>
</svg>